<svg id="Layer_1" data-name="Layer 1" xmlns="http://www.w3.org/2000/svg" viewBox="0 0 88.9 98"><defs><style>.cls-1{fill:#e9ebf0;}.cls-2{fill:#fff;}</style></defs><title>apply_duo</title><path class="cls-1" d="M69.4,54a19.46,19.46,0,1,0,.08,0ZM80.1,71.5,68.4,83.2a3.5,3.5,0,0,1-5,0l-.05,0-4.6-4.6a3.5,3.5,0,0,1,0-4.95l0-.05h0a3.5,3.5,0,0,1,5,0l0,0,2.1,2.1,9.2-9.2a3.5,3.5,0,0,1,5,0l0,0h0a3.5,3.5,0,0,1,.05,5Z" transform="translate(0 0)"/><path class="cls-2" d="M44.9,73.5A24.54,24.54,0,0,1,69.4,49h4.1V4.1a4.06,4.06,0,0,0-4-4.1H4.1A4.12,4.12,0,0,0,0,4.1V93.9A4.06,4.06,0,0,0,4,98H69.4A24.54,24.54,0,0,1,44.9,73.5ZM27.1,68.8H18.3a4.1,4.1,0,0,1,0-8.2h8.8a4.1,4.1,0,0,1,0,8.2Zm8.7-21.6H18.3a4.1,4.1,0,0,1,0-8.2H35.7a4.1,4.1,0,0,1,.1,8.2ZM18.3,25.6a4.1,4.1,0,1,1,0-8.2H43.9a4.1,4.1,0,1,1,0,8.2H18.3Z" transform="translate(0 0)"/></svg>