<svg id="Layer_1" data-name="Layer 1" xmlns="http://www.w3.org/2000/svg" viewBox="0 0 88.9 98"><defs><style>.cls-1{fill:#fec262;}</style></defs><title>apply</title><path class="cls-1" d="M74.9,55A19.5,19.5,0,1,0,94.4,74.5,19.46,19.46,0,0,0,74.9,55ZM85.6,72.5,73.9,84.2a3.5,3.5,0,0,1-5,0l-4.6-4.6a3.5,3.5,0,0,1,0-5h0a3.5,3.5,0,0,1,5,0l2.1,2.1,9.2-9.2a3.5,3.5,0,0,1,5,0h0A3.5,3.5,0,0,1,85.6,72.5Z" transform="translate(-5.5 -1)"/><path class="cls-1" d="M50.4,74.5A24.54,24.54,0,0,1,74.9,50H79V5.1A4.06,4.06,0,0,0,74.9,1H9.6A4.12,4.12,0,0,0,5.5,5.1V94.9A4.06,4.06,0,0,0,9.6,99H74.9A24.54,24.54,0,0,1,50.4,74.5ZM32.6,69.8H23.8a4.1,4.1,0,0,1,0-8.2h8.8a4.1,4.1,0,1,1,0,8.2Zm8.7-21.6H23.8a4.1,4.1,0,0,1,0-8.2H41.2a4.1,4.1,0,0,1,.1,8.2ZM23.8,26.6a4.1,4.1,0,1,1,0-8.2H49.4a4.1,4.1,0,1,1,0,8.2Z" transform="translate(-5.5 -1)"/></svg>