<svg id="Layer_1" data-name="Layer 1" xmlns="http://www.w3.org/2000/svg" viewBox="0 0 48.03 48"><defs><style>.cls-1{fill:#50c2c6;}</style></defs><title>blue_mail_2</title><path class="cls-1" d="M12,10.6h6.6a1.06,1.06,0,0,0,1-.9V3a.87.87,0,0,0-.6-.9.91.91,0,0,0-1.1.2L11.3,8.9a.91.91,0,0,0-.2,1.1A1,1,0,0,0,12,10.6Z" transform="translate(-2 -2)"/><path class="cls-1" d="M49.5,48.1l-19.4-11-2.6,1.5a3,3,0,0,1-3,0L22,37.2,2.6,48.2a1,1,0,0,0-.5,1.1A.88.88,0,0,0,3,50H49a1,1,0,0,0,1-.7A1.08,1.08,0,0,0,49.5,48.1Z" transform="translate(-2 -2)"/><path class="cls-1" d="M10.5,30.7A3,3,0,0,1,9,28.1V25.3L3.5,22.2a.91.91,0,0,0-1,0A.89.89,0,0,0,2,23V46.1L19.9,36Z" transform="translate(-2 -2)"/><path class="cls-1" d="M11.5,29l14,7.9a1.3,1.3,0,0,0,1,0l14-7.9a1.05,1.05,0,0,0,.5-.9V5a3,3,0,0,0-3-3H21.4a3.55,3.55,0,0,1,.2,1V9.6a3,3,0,0,1-3,3H12a3.55,3.55,0,0,1-1-.2V28.1A1.05,1.05,0,0,0,11.5,29ZM24,8H34a.94.94,0,0,1,1,1,.94.94,0,0,1-1,1H24a.94.94,0,0,1-1-1A1,1,0,0,1,24,8Zm-6,6H34a1,1,0,0,1,0,2H18a.94.94,0,0,1-1-1A1,1,0,0,1,18,14Zm0,6H34a1,1,0,0,1,0,2H18a.94.94,0,0,1-1-1A1,1,0,0,1,18,20Z" transform="translate(-2 -2)"/><polygon class="cls-1" points="41 14.5 41 20.9 45.5 18.4 41 14.5"/><path class="cls-1" d="M49.5,22.1a.91.91,0,0,0-1,0L43,25.2V28a3,3,0,0,1-1.5,2.6L32.1,36,50,46.1V23A1.19,1.19,0,0,0,49.5,22.1Z" transform="translate(-2 -2)"/><path class="cls-1" d="M9,22.9V16.4L4.5,20.3h0Z" transform="translate(-2 -2)"/></svg>