<svg id="Layer_1" data-name="Layer 1" xmlns="http://www.w3.org/2000/svg" viewBox="0 0 73 73"><defs><style>.cls-1{fill:#fff;}</style></defs><title>connect</title><g id="a"><path class="cls-1" d="M75.8,24.15A35.14,35.14,0,0,0,50,13.5,35.47,35.47,0,0,0,24.1,24.15,35.37,35.37,0,0,0,13.5,50,35.37,35.37,0,0,0,24.1,75.85,35.47,35.47,0,0,0,50,86.5,35.14,35.14,0,0,0,75.8,75.85,35.23,35.23,0,0,0,86.5,50,35.23,35.23,0,0,0,75.8,24.15M55.35,34.3a5.77,5.77,0,0,1,4.25-1.75,6,6,0,1,1,0,12.05,5.77,5.77,0,0,1-4.25-1.75.65.65,0,0,1-.15-.2L42.35,49.2c0,.33,0,.67,0,1s0,.67,0,1L55.2,57.6a.15.15,0,0,0,.15-.1,5.71,5.71,0,0,1,4.25-1.8,5.82,5.82,0,0,1,4.25,1.8,5.89,5.89,0,0,1,1.75,4.25A5.77,5.77,0,0,1,63.85,66a5.89,5.89,0,0,1-4.25,1.75A5.77,5.77,0,0,1,55.35,66a5.89,5.89,0,0,1-1.7-4.25V61L40.4,54.7a5.68,5.68,0,0,1-3.95,1.5,5.93,5.93,0,0,1-4.3-1.75,6,6,0,0,1,0-8.5,5.93,5.93,0,0,1,4.3-1.75,5.52,5.52,0,0,1,3.85,1.45L53.65,39.2v-.6A6.05,6.05,0,0,1,55.35,34.3Z" transform="translate(-13.5 -13.5)"/></g></svg>