<svg id="Layer_1" data-name="Layer 1" xmlns="http://www.w3.org/2000/svg" viewBox="0 0 45 60"><defs><style>.cls-1{fill:#5f5f70;}</style></defs><title>dark_blue_location</title><path class="cls-1" d="M22.5,60C16.5,52.28,12,46.35,9.76,43.39c-1.45-1.93-3.32-4.45-5.58-7.83l-.87-1.3"/><path class="cls-1" d="M22.5,0A22.5,22.5,0,0,0,0,22.5a25.92,25.92,0,0,0,.9,6.32,22.62,22.62,0,0,0,2.41,5.44c1,1.5,2.53,3.75,4.46,6.44s3.41,4.62,7.27,9.64c3,3.83,5.48,7.1,7.46,9.66,2-2.56,4.51-5.83,7.46-9.66,3.86-5,5.33-6.94,7.27-9.64s3.46-4.94,4.46-6.44a22.62,22.62,0,0,0,2.41-5.44A25.92,25.92,0,0,0,45,22.5,22.5,22.5,0,0,0,22.5,0Zm0,32.5a10,10,0,1,1,10-10A10,10,0,0,1,22.5,32.5Z"/></svg>