<svg id="Layer_1" data-name="Layer 1" xmlns="http://www.w3.org/2000/svg" viewBox="0 0 48.03 48"><defs><style>.cls-1{fill:#5f5f70;}</style></defs><title>dark_blue_mail_2</title><path class="cls-1" d="M10,8.6h6.6a1.06,1.06,0,0,0,1-.9V1A.88.88,0,0,0,17,.1a.92.92,0,0,0-1.1.2L9.3,6.9A.92.92,0,0,0,9.1,8,1,1,0,0,0,10,8.6Z" transform="translate(0 0)"/><path class="cls-1" d="M47.5,46.1l-19.4-11-2.6,1.5a3,3,0,0,1-3,0L20,35.2.6,46.2a1,1,0,0,0-.5,1.1A.88.88,0,0,0,1,48H47a1,1,0,0,0,1-.7A1.07,1.07,0,0,0,47.5,46.1Z" transform="translate(0 0)"/><path class="cls-1" d="M8.5,28.7A3,3,0,0,1,7,26.1V23.3L1.5,20.2a.91.91,0,0,0-1,0A.88.88,0,0,0,0,21V44.1L17.9,34Z" transform="translate(0 0)"/><path class="cls-1" d="M9.5,27l14,7.9a1.33,1.33,0,0,0,1,0l14-7.9a1.05,1.05,0,0,0,.5-.9V3a3,3,0,0,0-3-3H19.4a3.78,3.78,0,0,1,.2,1V7.6a3,3,0,0,1-3,3H10a3.78,3.78,0,0,1-1-.2V26.1A1.05,1.05,0,0,0,9.5,27ZM22,6H32a.94.94,0,0,1,1,.88V7a.94.94,0,0,1-.88,1H22a.94.94,0,0,1-1-.88V7A1,1,0,0,1,22,6Zm-6,6H32a1,1,0,0,1,0,2H16a.94.94,0,0,1-1-.88V13A1,1,0,0,1,16,12Zm0,6H32a1,1,0,0,1,0,2H16a.94.94,0,0,1-1-.88V19A1,1,0,0,1,16,18Z" transform="translate(0 0)"/><polygon class="cls-1" points="41 14.5 41 20.9 45.5 18.4 41 14.5"/><path class="cls-1" d="M47.5,20.1a.91.91,0,0,0-1,0L41,23.2V26a3,3,0,0,1-1.5,2.6L30.1,34,48,44.1V21A1.2,1.2,0,0,0,47.5,20.1Z" transform="translate(0 0)"/><path class="cls-1" d="M7,20.9V14.4L2.5,18.3h0Z" transform="translate(0 0)"/></svg>