<svg id="Layer_1" data-name="Layer 1" xmlns="http://www.w3.org/2000/svg" viewBox="0 0 74 52"><defs><style>.cls-1{fill:#5f5f70;}</style></defs><title>dark_blue_mail_3</title><path class="cls-1" d="M49.7,53.6,81,24.8a1,1,0,0,0-.7-1.8H17.7a1,1,0,0,0-.7,1.8L48.3,53.7A1.07,1.07,0,0,0,49.7,53.6Z" transform="translate(-12 -23)"/><path class="cls-1" d="M12,27.9V69.8a1,1,0,0,0,1.7.7L35.8,49a1.09,1.09,0,0,0,0-1.5L13.7,27.2A1,1,0,0,0,12,27.9Z" transform="translate(-12 -23)"/><path class="cls-1" d="M86,69.8V27.9a1,1,0,0,0-1.7-.7l-22,20.3a1.09,1.09,0,0,0,0,1.5l22,21.6A1,1,0,0,0,86,69.8Z" transform="translate(-12 -23)"/><path class="cls-1" d="M17.4,75H80.7a1,1,0,0,0,.7-1.7L59.3,51.6a1,1,0,0,0-1.4,0l-8.2,7.5a1,1,0,0,1-1.4,0l-8.1-7.5a1,1,0,0,0-1.4,0L16.7,73.3A1,1,0,0,0,17.4,75Z" transform="translate(-12 -23)"/></svg>