<svg xmlns="http://www.w3.org/2000/svg" viewBox="0 0 189.86 251.44"><defs><style>.cls-1{fill:#e9ebf0;}.cls-2{fill:#fff;}</style></defs><title>Asset 1</title><g id="Layer_2" data-name="Layer 2"><g id="Layer_1-2" data-name="Layer 1"><path class="cls-1" d="M187.69,119.54s-.49-3.12-1.73-8.4l-34.44,19.33-20.92-18L105,144.44l-10-6.86V251.43a107.12,107.12,0,0,0,56.8-15.35C203.08,205.31,187.69,119.54,187.69,119.54Z"/><path class="cls-1" d="M95,121.73l8,4.71,27-35,22,18,28.17-18.67C172.81,68.79,159.1,38.69,135,17,120.63,4,106.88-.15,95,0Z"/><path class="cls-2" d="M95,137.58,69,119.77,49.76,147.86,69,106.44l26,15.29V0h-.07C83-.16,69.26,4,54.84,17,12.42,55.21,2.16,119.54,2.16,119.54s-15.38,85.77,35.9,116.54a107.2,107.2,0,0,0,56.87,15.36H95Z"/></g></g></svg>