<svg id="Layer_1" data-name="Layer 1" xmlns="http://www.w3.org/2000/svg" viewBox="0 0 96.74 60.83"><defs><style>.cls-1{fill:#fff;}</style></defs><title>helping_hand</title><path class="cls-1" d="M68.5,67.4" transform="translate(-1.6 -19.5)"/><path class="cls-1" d="M90.6,56.2,71.2,61.7v.1a7.83,7.83,0,0,1-.8,5.8,7.93,7.93,0,0,1-4.8,3.8,8.1,8.1,0,0,1-6.1-.7L48.3,64.5l1.1-1.9,11.2,6.2a5.89,5.89,0,0,0,8-2.3,6.15,6.15,0,0,0,.7-2.3A4.79,4.79,0,0,0,67,59.3L39.7,44.2a8.62,8.62,0,0,0-6.7-.8h-.1c-.7.1-30,8.5-31.2,8.9H1.6L7.5,73.2l19.6-5.5c2,1.2,16.9,10.4,18.8,11.5,3.3,1.9,7.4.9,8.3.6.1,0,39.9-11.3,39.9-11.3,2.7-.8,5-4.4,4-8.2A6.06,6.06,0,0,0,90.6,56.2Z" transform="translate(-1.6 -19.5)"/><polygon class="cls-1" points="50.9 25.8 56.6 28.8 66.4 17.6 75.1 23.4 86.3 11.7 91.7 15 90.7 0 75.8 5.1 80.8 8.3 74.2 15.2 65.3 9.2 50.9 25.8"/></svg>