<svg id="Layer_1" data-name="Layer 1" xmlns="http://www.w3.org/2000/svg" viewBox="0 0 45 60"><defs><style>.cls-1{fill:#50c2c6;}</style></defs><title>location</title><path d="M50,80c-6-7.72-10.51-13.65-12.74-16.61-1.45-1.93-3.32-4.45-5.58-7.83l-.87-1.3" transform="translate(-27.5 -20)"/><path class="cls-1" d="M50,20A22.5,22.5,0,0,0,27.5,42.5a25.92,25.92,0,0,0,.9,6.32,22.62,22.62,0,0,0,2.41,5.44c1,1.5,2.53,3.75,4.46,6.44s3.41,4.62,7.27,9.64c3,3.83,5.48,7.1,7.46,9.66,2-2.56,4.51-5.83,7.46-9.66,3.86-5,5.33-6.94,7.27-9.64s3.46-4.94,4.46-6.44a22.62,22.62,0,0,0,2.41-5.44,25.92,25.92,0,0,0,.9-6.32A22.5,22.5,0,0,0,50,20Zm0,32.5a10,10,0,1,1,10-10A10,10,0,0,1,50,52.5Z" transform="translate(-27.5 -20)"/></svg>