<svg id="Layer_1" data-name="Layer 1" xmlns="http://www.w3.org/2000/svg" viewBox="0 0 115 115"><defs><style>.cls-1{fill:#50c2c6;}</style></defs><title>phone_icon</title><path id="ic_call_24px" data-name="ic call 24px" class="cls-1" d="M23.13,49.77a96.76,96.76,0,0,0,42.1,42.1L79.29,77.82a6.35,6.35,0,0,1,6.51-1.54,72.73,72.73,0,0,0,22.81,3.64A6.41,6.41,0,0,1,115,86.31v22.3a6.41,6.41,0,0,1-6.39,6.39A108.6,108.6,0,0,1,0,6.41v0A6.4,6.4,0,0,1,6.39,0H28.75a6.41,6.41,0,0,1,6.39,6.39A72.73,72.73,0,0,0,38.78,29.2a6.41,6.41,0,0,1-1.6,6.52Z"/></svg>