<svg id="Layer_1" data-name="Layer 1" xmlns="http://www.w3.org/2000/svg" viewBox="0 0 100 100.03"><defs><style>.cls-1{fill:#fff;}</style></defs><title>resources</title><path class="cls-1" d="M42.74,0,45,.34a62.59,62.59,0,0,1,11,3c2.7,1,5.4,1.86,8.09,2.77l.37.15L60.1,7.37a38.41,38.41,0,0,0-11.89,5.3,13.09,13.09,0,0,0-3.44,3.44,7,7,0,0,0-.55,7,16.54,16.54,0,0,0,4.09,5.37l.45.43L36.12,42.76c-.75-.77-1.55-1.62-2.38-2.43a36.16,36.16,0,0,0-3.19-3C28.21,35.56,26.33,36,25,38.79A52.88,52.88,0,0,0,23.14,44a3.32,3.32,0,0,1-.58,1.1c-1.62,1.82-3.27,3.61-5.09,5.61a3.28,3.28,0,0,0-.39-.71Q8.82,41,.53,31.88c-.17-.19-.35-.35-.53-.53v-.13a5.24,5.24,0,0,0,.5-.44c1.64-1.8,3.29-3.59,4.92-5.41a.73.73,0,0,1,.89-.26c1,.33,2,.62,3,.89A3.46,3.46,0,0,0,13,24.83,15.21,15.21,0,0,0,15,22,62.32,62.32,0,0,1,24.32,8C27.79,4.24,31.76,1.5,36.61.47,37.48.28,38.37.16,39.26,0Z"/><path class="cls-1" d="M85,94.85a31.49,31.49,0,0,1-3.42-1.34,7.92,7.92,0,0,1-2.16-1.74q-20-22.39-39.93-44.84l-.29-.34L51.87,32.71a3.77,3.77,0,0,0,.39.64L93.07,78.16a10.18,10.18,0,0,1-5.82,16.55,1.51,1.51,0,0,0-.33.13H85Z"/><path class="cls-1" d="M100,18.18c-.24.94-.43,1.91-.73,2.83A10.46,10.46,0,0,1,97,24.85Q86.44,36.42,75.89,48c-.25.28-.47.59-.65.82l-4.19-4.58,20.16-22-2.1-2.33L68.87,42l-3.2-3.52L85.57,16.7l-2.1-2.32L63.52,36.12,59.1,31.27a2.59,2.59,0,0,0,.56-.37Q70.54,19.19,81.38,7.43c2.9-3.16,6.26-4,10-2.51a13.16,13.16,0,0,1,8.28,9.49c.13.5.22,1,.32,1.53v2.24Z"/><path class="cls-1" d="M12,94.79q2.33,2.47,4.64,5a.55.55,0,0,0,.76.14l.08-.06c2.66-1.68,5.33-3.33,8-5a1.71,1.71,0,0,0,.52-.55c1.89-3,3.82-6.06,5.64-9.14a37.19,37.19,0,0,1,5.35-7c2.84-2.93,5.58-6,8.37-9l2.5-2.66L43,61.2l-.17.2c-3.61,3.89-7.2,7.79-10.83,11.65a30.6,30.6,0,0,1-3.63,3.57c-3.4,2.56-6.9,5-10.35,7.44a4.79,4.79,0,0,0-1.43,1.37C15,88.22,13.54,91.06,12,93.88A.66.66,0,0,0,12,94.79Z"/></svg>