<svg id="Layer_1" data-name="Layer 1" xmlns="http://www.w3.org/2000/svg" viewBox="0 0 559.08 94.78"><defs><style>.cls-1{fill:#fff;}</style></defs><title>Hatchery Text Logo White</title><path class="cls-1" d="M198.83,153.86h4.74c3.43,0,5.27,1.84,5.27,5.27v33.18h17.52V159.13c0-3.43,1.84-5.27,5.27-5.27h4.74c3.42,0,5.27,1.84,5.27,5.27v81.65c0,3.42-1.85,5.27-5.27,5.27h-4.74c-3.43,0-5.27-1.85-5.27-5.27V206H208.84v34.77c0,3.42-1.84,5.27-5.27,5.27h-4.74c-3.42,0-5.26-1.85-5.26-5.27V159.13C193.57,155.7,195.41,153.86,198.83,153.86Z" transform="translate(-120.92 -152.81)"/><path class="cls-1" d="M305.11,246.05h-4.87c-3.16,0-5.14-1.58-5.67-4.88l-2.5-15.67H275.21l-2.5,15.67c-.52,3.3-2.5,4.88-5.66,4.88H263c-3.56,0-5.4-2-4.75-5.66l15.15-81.79c.53-3.16,2.63-4.74,5.79-4.74h9.49c3.16,0,5.27,1.58,5.79,4.74l15.41,81.79C310.51,244.07,308.67,246.05,305.11,246.05Zm-15-33.19-6.46-41-6.45,41Z" transform="translate(-120.92 -152.81)"/><path class="cls-1" d="M361,159.13V162c0,3.43-1.85,5.27-5.27,5.27H345.54v73.49c0,3.42-1.85,5.27-5.27,5.27h-4.74c-3.43,0-5.27-1.85-5.27-5.27V167.29H320.12c-3.42,0-5.27-1.84-5.27-5.27v-2.89c0-3.43,1.85-5.27,5.27-5.27h35.56C359.1,153.86,361,155.7,361,159.13Z" transform="translate(-120.92 -152.81)"/><path class="cls-1" d="M421.79,213.78v13.83c0,14.22-9.22,19.49-23.18,19.49h-.27c-13.95,0-23.17-5.14-23.17-19.49V172.3c0-13.7,9.22-19.49,23.17-19.49h.27c14,0,23.18,5.79,23.18,19.49v11.59c0,3.42-1.85,5.26-5.27,5.26h-4.74c-3.43,0-5.27-1.84-5.27-5.26v-9.22c0-6.46-3.16-8.43-8-8.43s-8,2-8,8.43v50.57c0,6.45,3.16,8.43,8,8.43s8-2,8-8.43V213.78c0-3.42,1.84-5.27,5.27-5.27h4.74C419.94,208.51,421.79,210.36,421.79,213.78Z" transform="translate(-120.92 -152.81)"/><path class="cls-1" d="M447.07,153.86h4.74c3.42,0,5.27,1.84,5.27,5.27v33.18h17.51V159.13c0-3.43,1.85-5.27,5.27-5.27h4.74c3.42,0,5.27,1.84,5.27,5.27v81.65c0,3.42-1.85,5.27-5.27,5.27h-4.74c-3.42,0-5.27-1.85-5.27-5.27V206H457.08v34.77c0,3.42-1.85,5.27-5.27,5.27h-4.74c-3.43,0-5.27-1.85-5.27-5.27V159.13C441.8,155.7,443.64,153.86,447.07,153.86Z" transform="translate(-120.92 -152.81)"/><path class="cls-1" d="M546.49,246.05H516.2c-3.42,0-5.27-1.85-5.27-5.27V159.13c0-3.43,1.85-5.27,5.27-5.27h29.9c3.42,0,5.27,1.84,5.27,5.27V162c0,3.43-1.85,5.27-5.27,5.27H526.21v25.29H542c3.43,0,5.27,1.84,5.27,5.27v2.89c0,3.43-1.84,5.27-5.27,5.27h-15.8v26.6h20.28c3.43,0,5.27,1.85,5.27,5.27v2.9C551.76,244.2,549.92,246.05,546.49,246.05Z" transform="translate(-120.92 -152.81)"/><path class="cls-1" d="M613.26,246.05h-4.61a5.58,5.58,0,0,1-5.93-4.35l-10.27-32.4h-7.77v31.48c0,3.42-1.84,5.27-5.27,5.27h-4.74c-3.42,0-5.27-1.85-5.27-5.27V159.13c0-3.43,1.85-5.27,5.27-5.27h18.57c14,0,23.18,5.53,23.18,19.49v16.46c0,8.83-3.69,14.36-10,17.12L617.61,240C618.79,243.54,617.08,246.05,613.26,246.05Zm-28.58-49.92h8c5,0,8.42-1.84,8.42-8.42v-12c0-6.58-3.42-8.43-8.42-8.43h-8Z" transform="translate(-120.92 -152.81)"/><path class="cls-1" d="M662.9,240.78c0,3.42-1.84,5.27-5.26,5.27h-4.75c-3.42,0-5.26-1.85-5.26-5.27V213.26L630.9,159.79c-1.18-3.56.53-5.93,4.35-5.93h5.13c3.16,0,5,1.45,5.8,4.61l9.22,38.19,9.21-38.19c.8-3.16,2.64-4.61,5.8-4.61h4.87c3.82,0,5.53,2.37,4.35,5.93L662.9,213.26Z" transform="translate(-120.92 -152.81)"/><path class="cls-1" d="M123.76,222.7h1.57a2.55,2.55,0,0,1,2.84,2.84V231h39.67a2.55,2.55,0,0,1,2.84,2.84v2.56a2.55,2.55,0,0,1-2.84,2.84H128.17v5.48a2.55,2.55,0,0,1-2.84,2.84h-1.57a2.55,2.55,0,0,1-2.84-2.84v-19.2A2.55,2.55,0,0,1,123.76,222.7Z" transform="translate(-120.92 -152.81)"/><path class="cls-1" d="M120.92,211.6V209a2.55,2.55,0,0,1,2.84-2.84h17.92v-9.46H123.76a2.55,2.55,0,0,1-2.84-2.84v-2.56a2.55,2.55,0,0,1,2.84-2.84h44.08a2.55,2.55,0,0,1,2.84,2.84v2.56a2.55,2.55,0,0,1-2.84,2.84H149.07v9.46h18.77a2.55,2.55,0,0,1,2.84,2.84v2.56a2.55,2.55,0,0,1-2.84,2.85H123.76A2.55,2.55,0,0,1,120.92,211.6Z" transform="translate(-120.92 -152.81)"/><path class="cls-1" d="M170.68,157.92v16.35a2.55,2.55,0,0,1-2.84,2.84H123.76a2.55,2.55,0,0,1-2.84-2.84V158.13a2.55,2.55,0,0,1,2.84-2.84h1.57a2.55,2.55,0,0,1,2.84,2.84v10.74h13.65v-8.54a2.55,2.55,0,0,1,2.84-2.84h1.57a2.55,2.55,0,0,1,2.84,2.84v8.54h14.36v-11a2.56,2.56,0,0,1,2.84-2.85h1.57A2.55,2.55,0,0,1,170.68,157.92Z" transform="translate(-120.92 -152.81)"/></svg>