<svg id="Layer_1" data-name="Layer 1" xmlns="http://www.w3.org/2000/svg" viewBox="0 0 93.2 97.91"><defs><style>.cls-1{fill:#5f5f70;}</style></defs><title>who</title><path class="cls-1" d="M90.6,76.6A158.24,158.24,0,0,0,65.9,61.1a.79.79,0,0,1-.5-.8V52.4A26.33,26.33,0,0,0,67.7,45c1.1.7,2.8.3,4.8-6.5,1.6-5.6.6-7.4-.7-7.9C76.2,9.4,66.1,8.7,66.1,8.7a14.53,14.53,0,0,0-5.5-5.2A19,19,0,0,0,49.2,1.2a17,17,0,0,0-4.6.8h0a18.3,18.3,0,0,0-5,2.6,29.22,29.22,0,0,0-5.1,4.2,21.64,21.64,0,0,0-5.6,9.7,17.82,17.82,0,0,0,.5,10.9c-1.8-.2-4,.9-1.9,8,1.5,5.2,2.9,6.7,3.9,6.8a26.43,26.43,0,0,0,3.2,9.3v6.8a1,1,0,0,1-.5.8A158.24,158.24,0,0,0,9.4,76.6a15.49,15.49,0,0,0-6,12.3v5.5A4.65,4.65,0,0,0,8,99H92a4.65,4.65,0,0,0,4.6-4.6V88.9A15.49,15.49,0,0,0,90.6,76.6ZM52,47.3a3.34,3.34,0,0,1-2.3.9,3.58,3.58,0,0,1-2.4-.9,3,3,0,0,1-1-2.4,2.9,2.9,0,0,1,1-2.3,3.31,3.31,0,0,1,2.4-1,2.9,2.9,0,0,1,2.3,1,3.26,3.26,0,0,1,1,2.3A3,3,0,0,1,52,47.3Zm8.3-20.5a8.88,8.88,0,0,1-1.8,2.4c-.7.7-2,1.8-3.8,3.5l-1.2,1.2a6.07,6.07,0,0,0-.7,1,3.18,3.18,0,0,0-.3.9c-.1.3-.2.8-.4,1.5a2.51,2.51,0,0,1-2.6,2.3,2.56,2.56,0,0,1-1.9-.8,3,3,0,0,1-.8-2.2,7.94,7.94,0,0,1,.6-3.2A9.74,9.74,0,0,1,48.9,31a21.51,21.51,0,0,1,2.6-2.4,19.54,19.54,0,0,0,2-1.9,7.55,7.55,0,0,0,1.1-1.4,3.29,3.29,0,0,0,.4-1.7,3.8,3.8,0,0,0-1.3-3,4.87,4.87,0,0,0-3.4-1.2,4.89,4.89,0,0,0-3.6,1.2,8.68,8.68,0,0,0-1.9,3.6c-.5,1.7-1.5,2.5-2.9,2.5a2.88,2.88,0,0,1-2.1-.9,2.62,2.62,0,0,1-.9-1.9,8.21,8.21,0,0,1,1.3-4.3A11.36,11.36,0,0,1,44.1,16a12.66,12.66,0,0,1,6-1.4,13.22,13.22,0,0,1,5.7,1.2A10,10,0,0,1,59.6,19a7.8,7.8,0,0,1,1.3,4.4A5.23,5.23,0,0,1,60.3,26.8Z" transform="translate(-3.4 -1.09)"/></svg>