<svg id="Layer_1" data-name="Layer 1" xmlns="http://www.w3.org/2000/svg" viewBox="0 0 89.42 98.3"><defs><style>.cls-1{fill:#fff;}</style></defs><title>workshops2</title><path class="cls-1" d="M5.29,60.28V6.63A5.63,5.63,0,0,1,10.92,1H67a15.32,15.32,0,0,0-2,18.58,10.13,10.13,0,0,0-2.48,1.5l-6.3,5.2L50,21.41A10.18,10.18,0,0,0,37.33,37.35l.21.16L50,47.35a10.19,10.19,0,0,0,11.53.73V65.91H10.92a5.63,5.63,0,0,1-5.63-5.63ZM78.14,21.13a9.5,9.5,0,1,0-9.5-9.5A9.5,9.5,0,0,0,78.14,21.13ZM84.3,99a4.51,4.51,0,0,0,4.51-4.51h0v-37a7.32,7.32,0,0,0,5.9-7.18V32a7.32,7.32,0,0,0-7.32-7.32H68.93a4.25,4.25,0,0,0-2.7,1l-10,8.25L46.3,26.07a4.24,4.24,0,0,0-6,.65,5,5,0,0,0-.33.47,4.37,4.37,0,0,0,1.13,5.65l12.49,9.84a4.25,4.25,0,0,0,5.38,0l8.46-7V94.49a4.51,4.51,0,0,0,9,.6q0-.3,0-.6V68.12a1.65,1.65,0,0,1,1.65-1.65,1.32,1.32,0,0,1,.28,0,1.71,1.71,0,0,1,1.37,1.72V94.49A4.51,4.51,0,0,0,84.27,99Z" transform="translate(-5.29 -1)"/></svg>