<svg id="Layer_1" data-name="Layer 1" xmlns="http://www.w3.org/2000/svg" viewBox="0 0 463.39 273.72"><defs><style>.cls-1{fill:#fff;}</style></defs><title>workshops</title><path class="cls-1" d="M355.78,273.24H106.14c-3.3-22.87-1.33-43,16.06-60.88,33-33.87,73.48-45.56,119-43.7,30.92,1.26,59.38,10.28,84,29.74C349.12,217.24,365.18,239.47,355.78,273.24Z" transform="translate(-0.03 0.48)"/><path class="cls-1" d="M231.88,0c35.58.19,62.83,27.85,62.63,63.59-.21,35.58-27.88,62.84-63.6,62.64S168.1,98.38,168.3,62.62C168.49,27,196.12-.18,231.88,0Z" transform="translate(-0.03 0.48)"/><path class="cls-1" d="M368.3,0c29.91,0,52.61,23,52.54,53.16a52.72,52.72,0,0,1-52.73,52.45,53.39,53.39,0,0,1-53-52.6C314.68,23.88,338.65,0,368.3,0Z" transform="translate(-0.03 0.48)"/><path class="cls-1" d="M309.23,164.14c16.43-12.23,34.07-16.23,52.55-17,38.62-1.56,70.3,11.63,93.6,43.66,8.77,12,8.45,25.06,7.68,38.45-.1,1.73-3.59,4.65-5.54,4.68q-37.9.48-75.82,0a7.74,7.74,0,0,1-5.78-3.73c-12.23-28.47-34.06-47.57-60.26-62.5Z" transform="translate(-0.03 0.48)"/><path class="cls-1" d="M147,53a52.47,52.47,0,1,1,0-1.14C147,52.26,147,52.64,147,53Z" transform="translate(-0.03 0.48)"/><path class="cls-1" d="M153,164.15c-25.62,13.3-47.32,29.69-60,54.16-6.77,13-14.42,16.16-27.85,15.43-21.19-1.16-42.5-.31-64.23-.31-2.06-17.41-1.43-32.6,9.83-47,30.59-39,93.47-51.78,136.27-26.53C148.66,160.89,150.15,162.11,153,164.15Z" transform="translate(-0.03 0.48)"/></svg>